# xmcd CD database file
#
# Track frame offsets:
#	150
#	15905
#	30846
#	47780
#	67293
#	82926
#	104191
#	125879
#	140019
#	155129
#	171318
#	185526
#	199336
#	216573
#	232110
#	244255
#	257751
#	272705
#
# Disc length: 3807 seconds
#
# Revision: 3
# Processed by: cddbd v1.5.2PL0 Copyright (c) Steve Scherf et al.
# Submitted via: CDex 2.23
#
DISCID=1c0edd12
DTITLE=Kenny Rogers - Love Songs
DYEAR=2007
DGENRE=Country
TTITLE0=Throughout The Years
TTITLE1=Crazy
TTITLE2=When a Man loves a Woman
TTITLE3=She Believes in Me
TTITLE4=Unchained Melody
TTITLE5=Always and Forever
TTITLE6=HaveI Told you Lately That I Love You
TTITLE7=You Are So Beautiful
TTITLE8=I Can't Help Falling In Love
TTITLE9=The Wind Beneath  My Wings
TTITLE10=You Light Up My Life
TTITLE11=Love My Tender
TTITLE12=Endless Love
TTITLE13=When I Fall In Love
TTITLE14=It Had To Be You
TTITLE15=I Will Always Love You
TTITLE16=Misty
TTITLE17=As Time Goes By
EXTD=YEAR: 2007
EXTT0=
EXTT1=
EXTT2=
EXTT3=
EXTT4=
EXTT5=
EXTT6=
EXTT7=
EXTT8=
EXTT9=
EXTT10=
EXTT11=
EXTT12=
EXTT13=
EXTT14=
EXTT15=
EXTT16=
EXTT17=
PLAYORDER=
